<svg viewBox="0 -6 512 512" width="512pt" xmlns="http://www.w3.org/2000/svg"><path d="m485.804688 0h-15.429688c-4.25 0-7.699219 3.449219-7.699219 7.695312 0 4.246094 3.449219 7.695313 7.699219 7.695313h15.429688c5.960937 0 10.804687 4.84375 10.804687 10.804687v266.84375c-13.078125 0-287.078125 0-297.6875 0-4.257813 0-7.695313 3.4375-7.695313 7.695313 0 4.25 3.4375 7.695313 7.695313 7.695313h297.6875v37.976562c0 5.960938-4.84375 10.804688-10.804687 10.804688-20.007813 0-443.171876 0-459.609376 0-5.960937 0-10.804687-4.84375-10.804687-10.804688v-37.976562h152.75c4.246094 0 7.695313-3.445313 7.695313-7.695313 0-4.257813-3.449219-7.695313-7.695313-7.695313h-152.75v-165.5c0-4.25-3.449219-7.695312-7.695313-7.695312-4.246093 0-7.695312 3.445312-7.695312 7.695312v218.867188c0 14.445312 11.75 26.195312 26.195312 26.195312h183.859376l-14.632813 72.878907h-29.972656c-10.882813 0-19.75 8.867187-19.75 19.753906v15.390625c0 10.882812 8.867187 19.75 19.75 19.75h181.101562c10.882813 0 19.75-8.867188 19.75-19.75v-15.390625c0-10.886719-8.867187-19.753906-19.75-19.753906h-29.960937l-14.644532-72.878907h183.859376c14.445312 0 26.195312-11.75 26.195312-26.195312 0-6.203125 0-317.019531 0-320.210938 0-14.445312-11.75-26.195312-26.195312-26.195312zm-260.050782 372.601562h60.492188l14.644531 72.878907h-89.78125zm120.796875 88.269532c2.398438 0 4.359375 1.960937 4.359375 4.363281v15.390625c0 2.398438-1.960937 4.359375-4.359375 4.359375h-181.101562c-2.398438 0-4.359375-1.960937-4.359375-4.359375v-15.390625c0-2.402344 1.960937-4.363281 4.359375-4.363281zm0 0"/><path d="m7.695312 104.453125c4.246094 0 7.695313-3.449219 7.695313-7.695313v-70.5625c0-5.960937 4.84375-10.804687 10.804687-10.804687h413.394532c4.25 0 7.695312-3.449219 7.695312-7.695313 0-4.246093-3.445312-7.695312-7.695312-7.695312h-413.394532c-14.445312 0-26.195312 11.75-26.195312 26.195312v70.5625c0 4.246094 3.449219 7.695313 7.695312 7.695313zm0 0"/><path d="m479.039062 332.820312c0-11.105468-9.035156-20.136718-20.136718-20.136718-11.101563 0-20.136719 9.03125-20.136719 20.136718 0 11.101563 9.035156 20.132813 20.136719 20.132813 11.101562 0 20.136718-9.03125 20.136718-20.132813zm-24.882812 0c0-2.617187 2.128906-4.746093 4.746094-4.746093 2.617187 0 4.746094 2.128906 4.746094 4.746093 0 2.613282-2.128907 4.742188-4.746094 4.742188-2.617188 0-4.746094-2.128906-4.746094-4.742188zm0 0"/><path d="m426.203125 332.820312c0-11.101562-9.042969-20.140624-20.144531-20.140624-11.101563 0-20.140625 9.039062-20.140625 20.140624 0 11.101563 9.039062 20.132813 20.140625 20.132813 11.101562 0 20.144531-9.03125 20.144531-20.132813zm-24.894531 0c0-2.617187 2.136718-4.75 4.75-4.75 2.617187 0 4.753906 2.132813 4.753906 4.75 0 2.617188-2.136719 4.742188-4.753906 4.742188-2.613282 0-4.75-2.125-4.75-4.742188zm0 0"/><path d="m48.222656 325.125c-4.25 0-7.695312 3.441406-7.695312 7.695312 0 4.25 3.445312 7.695313 7.695312 7.695313h100.554688c4.25 0 7.695312-3.445313 7.695312-7.695313 0-4.253906-3.445312-7.695312-7.695312-7.695312zm0 0"/><path d="m79.847656 68.421875c0-15.703125-10.722656-19.464844-22.222656-19.464844h-21.34375c-3.207031 0-6.304688 1.546875-6.304688 4.535157v71.878906c0 2.320312 2.433594 4.421875 6.304688 4.421875h23.441406c12.5 0 22.117188-6.191407 22.117188-23.445313 0-10.089844-1.449219-16.4375-11.390625-20.34375 5.863281-2.546875 9.398437-8.515625 9.398437-17.582031zm-35.605468-6.859375h12.277343c5.636719 0 8.953125 3.539062 8.953125 9.289062 0 5.640626-2.875 9.511719-8.84375 9.511719h-12.386718zm12.496093 55.621094h-12.496093v-25.542969c16.03125 0 23.222656-2.246094 23.222656 13.492187 0 8.402344-3.980469 12.050782-10.726563 12.050782zm0 0"/><path d="m131.488281 126.917969c4.351563 8.699219 16.949219-1.410157 13.382813-5.863281l-14.488282-26.871094c8.296876-2.542969 14.488282-9.398438 14.488282-22.117188 0-17.582031-11.722656-23.109375-26.207032-23.109375h-21.894531c-2.765625 0-4.644531 2.101563-4.644531 4.425781v71.875c0 6 14.375 6.074219 14.375 0v-28.863281h9.289062zm-24.988281-41.800781v-23.554688h12.164062c7.1875 0 11.832032 3.097656 11.832032 11.832031 0 13.738281-10.339844 11.722657-23.996094 11.722657zm0 0"/><path d="m200.824219 117.183594h-31.296875v-22.222656h16.808594c6.121093 0 5.933593-11.28125 0-11.28125h-16.808594v-22.117188h31.296875c5.960937 0 6.128906-12.605469 0-12.605469h-39.367188c-3.207031 0-6.304687 1.546875-6.304687 4.535157v71.765624c0 2.984376 3.097656 4.535157 6.304687 4.535157h39.367188c6.128906 0 5.957031-12.609375 0-12.609375zm0 0"/><path d="m255.78125 126.917969c1.519531 5.765625 15.277344 2.078125 13.710938-4.203125l-21.339844-69.554688c-1.945313-6.476562-16.507813-6.535156-18.46875 0-.175782.570313-21.5625 70.0625-21.5625 70.660156 0 5.371094 12.46875 8.652344 13.933594 3.097657l4.199218-14.707031h25.324219zm-26.539062-25.988281 9.621093-33.949219 9.617188 33.949219zm0 0"/><path d="m277.34375 53.382812v71.875c0 6.070313 14.375 6 14.375 0v-21.671874l5.972656-7.519532 20.789063 31.515625c4.378906 7.167969 16.957031-1.183593 12.828125-6.96875l-24.109375-36.710937c21.515625-26.921875 20.679687-25.25 20.679687-27.535156 0-3.648438-4.644531-7.410157-8.292968-7.410157-3.359376 0-1.976563-.632812-27.867188 34.613281v-30.1875c0-5.921874-14.375-5.957031-14.375 0zm0 0"/><path d="m352.757812 125.257812v-71.875c0-5.917968-14.375-5.957031-14.375 0v71.875c0 2.988282 3.535157 4.535157 7.1875 4.535157 3.535157 0 7.1875-1.550781 7.1875-4.535157zm0 0"/><path d="m419.660156 125.257812v-71.875c0-5.917968-14.378906-5.957031-14.378906 0v44.453126l-21.339844-41.25c-3.429687-6.523438-5.53125-7.628907-10.726562-7.628907-3.648438 0-7.1875 1.4375-7.1875 4.535157v71.765624c0 2.984376 3.539062 4.535157 7.1875 4.535157 3.539062 0 7.1875-1.550781 7.1875-4.535157v-44.453124l23.773437 44.453124c3.878907 7.070313 15.484375 5.023438 15.484375 0zm0 0"/><path d="m458.027344 61.5625c9.398437 0 11.167968 5.75 11.5 10.949219.109375 3.425781 3.316406 4.535156 7.1875 4.535156 4.757812 0 7.1875-1.328125 7.1875-6.859375 0-13.269531-11.167969-21.230469-26.429688-21.230469-14.042968 0-25.429687 6.855469-25.429687 25.324219v30.851562c0 18.464844 11.277343 25.324219 25.875 25.324219 14.597656 0 25.984375-6.859375 25.984375-25.324219v-13.160156c0-2.433594-1.65625-4.644531-4.53125-4.644531h-18.800782c-5.847656 0-5.910156 11.28125 0 11.28125h8.957032c0 6.871094 1.515625 19.238281-11.609375 19.238281-7.296875 0-11.5-4.089844-11.5-12.714844v-30.851562c0-8.625 4.203125-12.71875 11.609375-12.71875zm0 0"/><path d="m136.574219 244.28125v-44.453125l23.777343 44.453125c3.875 7.070312 15.480469 5.019531 15.480469 0v-71.878906c0-5.917969-14.375-5.957032-14.375 0v44.453125l-21.34375-41.246094c-3.429687-6.523437-5.527343-7.632813-10.726562-7.632813-3.648438 0-7.1875 1.4375-7.1875 4.535157v71.765625c0 6.074218 14.375 6 14.375.003906zm0 0"/><path d="m234.769531 180.585938c5.960938 0 6.132813-12.605469 0-12.605469h-39.363281c-3.207031 0-6.304688 1.546875-6.304688 4.53125v71.769531c0 2.984375 3.097657 4.53125 6.304688 4.53125h39.363281c6.132813 0 5.960938-12.605469 0-12.605469h-31.292969v-22.226562h16.808594c6.117188 0 5.933594-11.277344 0-11.277344h-16.808594v-22.117187zm0 0"/><path d="m264.183594 244.613281c1.976562 6.589844 17.085937 6.398438 18.578125 0l7.1875-29.859375 7.078125 29.859375c.773437 3.316407 5.085937 4.863281 9.175781 4.863281 4.203125 0 8.292969-1.546874 9.398437-4.863281 23.269532-73.917969 22.117188-69.910156 22.117188-70.882812 0-4.957031-12.449219-8.523438-13.929688-2.875l-17.472656 59.933593-9.402344-38.480468c-1.28125-5.347656-12.765624-5.308594-14.042968 0l-9.398438 38.480468-17.472656-59.933593c-1.558594-5.925781-15.714844-1.800781-13.710938 4.203125zm0 0"/><path d="m366.46875 236.871094c-11.277344 0-14.261719-8.515625-18.796875-8.515625-3.429687 0-6.304687 4.644531-6.304687 7.742187 0 15.363282 51.863281 24.628906 51.863281-10.285156 0-28.640625-35.496094-23.882812-35.496094-37.597656 0-5.308594 4.535156-8.515625 12.496094-8.515625 9.289062 0 11.832031 4.203125 15.257812 4.203125 3.984375 0 5.75-5.085938 5.75-7.628906 0-7.296876-14.484375-8.847657-21.011719-8.847657-12.714843 0-26.867187 5.640625-26.867187 22.117188 0 26.207031 35.496094 21.121093 35.496094 37.707031 0 6.632812-5.75 9.621094-12.386719 9.621094zm0 0"/><path d="m102.011719 167.59375h-68.679688c-4.25 0-7.695312 3.441406-7.695312 7.695312 0 4.25 3.445312 7.695313 7.695312 7.695313h68.679688c4.25 0 7.695312-3.445313 7.695312-7.695313 0-4.253906-3.445312-7.695312-7.695312-7.695312zm0 0"/><path d="m102.011719 232.574219h-68.679688c-4.25 0-7.695312 3.445312-7.695312 7.695312 0 4.253907 3.445312 7.695313 7.695312 7.695313h68.679688c4.25 0 7.695312-3.441406 7.695312-7.695313 0-4.25-3.445312-7.695312-7.695312-7.695312zm0 0"/><path d="m102.011719 200.082031h-68.679688c-4.25 0-7.695312 3.445313-7.695312 7.695313 0 4.253906 3.445312 7.695312 7.695312 7.695312h68.679688c4.25 0 7.695312-3.441406 7.695312-7.695312 0-4.25-3.445312-7.695313-7.695312-7.695313zm0 0"/><path d="m478.667969 167.59375h-68.679688c-4.25 0-7.695312 3.441406-7.695312 7.695312 0 4.25 3.445312 7.695313 7.695312 7.695313h68.679688c4.253906 0 7.695312-3.445313 7.695312-7.695313 0-4.253906-3.445312-7.695312-7.695312-7.695312zm0 0"/><path d="m478.667969 232.574219h-68.679688c-4.25 0-7.695312 3.445312-7.695312 7.695312 0 4.253907 3.445312 7.695313 7.695312 7.695313h68.679688c4.253906 0 7.695312-3.441406 7.695312-7.695313 0-4.25-3.445312-7.695312-7.695312-7.695312zm0 0"/><path d="m478.667969 200.082031h-68.679688c-4.25 0-7.695312 3.445313-7.695312 7.695313 0 4.253906 3.445312 7.695312 7.695312 7.695312h68.679688c4.253906 0 7.695312-3.441406 7.695312-7.695312 0-4.25-3.445312-7.695313-7.695312-7.695313zm0 0"/></svg>